<svg id="svg" version="1.1" xmlns="http://www.w3.org/2000/svg" xmlns:xlink="http://www.w3.org/1999/xlink" width="400" height="400" viewBox="0, 0, 400,400"><g id="svgg"><path id="path0" d="M182.333 182.023 C 182.333 185.677,182.220 188.667,182.081 188.667 C 181.942 188.667,181.884 189.367,181.952 190.224 L 182.076 191.780 180.639 190.724 C 179.849 190.142,178.969 189.664,178.684 189.662 C 178.275 189.658,178.260 189.598,178.609 189.376 C 179.230 188.982,173.527 188.691,172.167 189.047 C 169.643 189.707,168.635 190.079,168.205 190.509 C 167.935 190.779,167.620 191.000,167.505 191.000 C 166.318 191.000,162.326 197.013,161.861 199.501 C 161.793 199.869,161.569 200.793,161.364 201.554 C 160.747 203.843,160.878 213.327,161.541 214.399 C 161.635 214.552,161.786 215.083,161.876 215.578 C 161.966 216.074,162.168 216.634,162.325 216.823 C 162.482 217.012,162.630 217.276,162.654 217.410 C 163.990 224.786,174.986 227.843,180.937 222.493 C 182.765 220.850,183.000 220.877,183.000 222.733 C 183.000 223.702,183.160 224.081,183.644 224.261 C 184.469 224.567,199.000 224.387,199.001 224.071 C 199.001 223.940,197.501 223.881,195.667 223.939 L 192.333 224.044 192.333 200.232 L 192.333 176.419 190.667 176.198 C 189.707 176.071,188.998 175.805,188.995 175.572 C 188.991 175.257,188.933 175.256,188.735 175.568 C 188.572 175.824,187.943 175.912,186.990 175.812 C 186.170 175.726,184.787 175.593,183.917 175.518 L 182.333 175.379 182.333 182.023 M209.936 175.508 C 209.866 175.579,208.914 175.725,207.821 175.834 C 206.728 175.943,205.083 176.115,204.167 176.217 C 203.250 176.319,202.200 176.405,201.833 176.408 C 201.172 176.414,201.167 176.609,201.254 200.386 L 201.342 224.358 207.588 224.326 C 211.023 224.308,213.946 224.321,214.083 224.355 C 214.648 224.494,214.874 224.573,215.742 224.933 C 218.726 226.173,225.019 224.578,227.562 221.936 C 234.611 214.614,234.135 196.024,226.768 190.955 C 222.566 188.064,216.271 188.533,212.618 192.008 L 211.333 193.230 211.333 184.805 L 211.333 176.380 212.083 176.235 L 212.833 176.091 212.083 176.045 C 211.671 176.020,211.333 175.882,211.333 175.738 C 211.333 175.469,210.167 175.277,209.936 175.508 M217.200 175.588 C 217.402 175.723,217.652 176.058,217.757 176.333 C 217.884 176.667,217.956 176.584,217.974 176.083 C 217.991 175.579,217.809 175.335,217.417 175.338 C 217.057 175.342,216.974 175.437,217.200 175.588 M136.250 189.194 C 136.193 189.251,135.639 189.387,135.018 189.497 C 133.548 189.756,130.667 190.999,130.667 191.374 C 130.667 191.535,130.479 191.667,130.250 191.668 C 129.070 191.673,124.754 197.389,124.148 199.750 C 124.112 199.887,124.053 200.037,124.016 200.083 C 123.979 200.129,123.894 200.392,123.827 200.667 C 123.760 200.942,123.610 201.542,123.494 202.000 C 122.809 204.698,122.785 209.065,123.437 212.333 C 123.808 214.195,125.348 218.000,125.731 218.000 C 125.879 218.000,126.000 218.156,126.000 218.347 C 126.000 219.942,131.740 224.055,134.639 224.536 C 135.265 224.640,136.090 224.843,136.472 224.987 C 137.451 225.356,145.029 225.363,145.833 224.995 C 146.200 224.827,147.339 224.404,148.365 224.055 C 150.393 223.365,154.000 221.206,154.000 220.683 C 154.000 220.504,153.156 219.159,152.125 217.694 L 150.250 215.031 148.542 215.916 C 147.602 216.403,146.758 216.811,146.667 216.823 C 146.575 216.834,146.350 216.934,146.167 217.044 C 145.983 217.154,145.432 217.222,144.942 217.195 C 144.452 217.169,144.135 217.283,144.238 217.449 C 144.346 217.624,143.085 217.692,141.219 217.610 C 136.631 217.409,134.326 215.560,133.497 211.417 L 133.280 210.333 144.269 210.333 L 155.258 210.333 155.415 209.263 C 156.214 203.820,154.353 197.232,150.973 193.534 C 149.409 191.823,145.946 189.667,144.760 189.667 C 144.504 189.667,144.376 189.534,144.476 189.372 C 144.639 189.109,136.511 188.934,136.250 189.194 M237.583 190.221 C 237.813 190.313,238.000 190.601,238.000 190.861 C 238.000 191.121,238.150 191.333,238.333 191.333 C 238.517 191.333,238.667 191.507,238.667 191.719 C 238.667 191.930,239.042 192.595,239.500 193.196 C 239.958 193.797,240.333 194.449,240.333 194.644 C 240.333 194.840,240.483 195.000,240.667 195.000 C 240.850 195.000,241.000 195.225,241.000 195.500 C 241.000 195.775,241.150 196.000,241.333 196.000 C 241.517 196.000,241.667 196.173,241.667 196.385 C 241.667 196.597,242.042 197.262,242.500 197.863 C 242.958 198.464,243.333 199.116,243.333 199.311 C 243.333 199.507,243.483 199.667,243.667 199.667 C 243.850 199.667,244.000 199.892,244.000 200.167 C 244.000 200.442,244.150 200.667,244.333 200.667 C 244.517 200.667,244.667 200.892,244.667 201.167 C 244.667 201.442,244.817 201.667,245.000 201.667 C 245.183 201.667,245.333 201.840,245.333 202.052 C 245.333 202.264,245.708 202.929,246.167 203.530 C 246.625 204.131,247.000 204.782,247.000 204.978 C 247.000 205.173,247.133 205.333,247.294 205.333 C 247.892 205.333,247.893 206.591,247.296 207.367 C 246.958 207.807,246.678 208.354,246.674 208.583 C 246.670 208.813,246.517 209.000,246.333 209.000 C 246.150 209.000,246.000 209.225,246.000 209.500 C 246.000 209.775,245.850 210.000,245.667 210.000 C 245.483 210.000,245.333 210.225,245.333 210.500 C 245.333 210.775,245.183 211.000,245.000 211.000 C 244.817 211.000,244.667 211.150,244.667 211.333 C 244.667 211.515,244.142 212.396,243.500 213.289 C 242.858 214.182,242.333 215.083,242.333 215.290 C 242.333 215.497,242.183 215.667,242.000 215.667 C 241.817 215.667,241.667 215.892,241.667 216.167 C 241.667 216.442,241.517 216.667,241.333 216.667 C 241.150 216.667,241.000 216.834,241.000 217.039 C 241.000 217.243,240.475 218.126,239.833 219.000 C 239.192 219.874,238.667 220.757,238.667 220.961 C 238.667 221.166,238.517 221.333,238.333 221.333 C 238.150 221.333,238.000 221.558,238.000 221.833 C 238.000 222.108,237.850 222.333,237.667 222.333 C 237.483 222.333,237.333 222.558,237.333 222.833 C 237.333 223.108,237.183 223.333,237.000 223.333 C 236.817 223.333,236.667 223.558,236.667 223.833 C 236.667 224.257,237.491 224.333,242.085 224.333 L 247.504 224.333 247.924 223.417 C 248.155 222.912,249.581 220.069,251.093 217.097 L 253.841 211.693 255.504 214.930 C 256.418 216.710,257.264 218.242,257.382 218.333 C 257.500 218.425,258.203 219.813,258.944 221.417 L 260.290 224.333 266.165 224.333 C 270.777 224.333,271.985 224.244,271.787 223.917 C 271.649 223.688,269.018 219.557,265.940 214.739 L 260.345 205.978 263.724 200.572 C 265.583 197.599,267.831 194.004,268.721 192.583 L 270.338 190.000 264.825 190.000 C 259.865 190.000,259.295 190.058,259.134 190.583 C 259.036 190.904,257.897 193.342,256.602 196.000 L 254.248 200.833 251.546 195.417 L 248.843 190.000 243.005 190.026 C 239.794 190.041,237.354 190.128,237.583 190.221 M142.690 196.512 C 143.246 196.799,143.795 197.290,143.910 197.601 C 144.024 197.912,144.211 198.242,144.325 198.333 C 144.740 198.668,145.571 202.349,145.416 203.163 C 145.179 204.401,140.029 204.483,139.955 203.250 L 139.909 202.500 139.765 203.250 C 139.627 203.965,139.472 204.000,136.477 204.000 L 133.333 204.000 133.333 203.038 C 133.333 197.651,138.254 194.218,142.690 196.512 M178.667 196.667 C 179.308 196.848,180.396 197.532,181.083 198.186 L 182.333 199.375 182.333 206.556 L 182.333 213.737 181.304 215.037 C 180.738 215.752,180.115 216.238,179.919 216.117 C 179.714 215.990,179.661 216.054,179.793 216.268 C 180.147 216.840,178.219 217.667,176.528 217.667 C 173.360 217.667,171.836 215.065,171.452 209.000 C 170.898 200.231,173.789 195.288,178.667 196.667 M218.772 197.045 C 220.188 197.782,221.208 199.313,221.571 201.248 C 222.132 204.236,221.794 213.010,221.074 214.139 C 220.947 214.337,220.841 214.584,220.838 214.686 C 220.805 215.904,218.135 217.667,216.322 217.667 C 211.932 217.667,211.333 216.465,211.333 207.647 L 211.333 200.384 212.247 199.276 C 214.268 196.822,216.726 195.981,218.772 197.045 M239.103 206.833 C 239.105 207.933,239.167 208.343,239.242 207.744 C 239.316 207.145,239.314 206.245,239.238 205.744 C 239.162 205.243,239.101 205.733,239.103 206.833 M255.316 221.368 C 254.569 222.853,254.012 224.123,254.078 224.189 C 254.143 224.254,254.827 223.039,255.596 221.487 C 256.366 219.936,256.923 218.667,256.835 218.667 C 256.746 218.667,256.063 219.882,255.316 221.368 M234.146 221.750 L 233.167 222.833 234.250 221.854 C 234.846 221.316,235.333 220.828,235.333 220.771 C 235.333 220.513,235.058 220.740,234.146 221.750 M212.044 222.833 L 213.335 224.000 211.834 224.000 C 210.341 224.000,210.333 223.994,210.333 222.833 C 210.333 222.192,210.428 221.667,210.543 221.667 C 210.658 221.667,211.334 222.192,212.044 222.833 " stroke="none" fill="#7a767a" fill-rule="evenodd"></path><path id="path1" d="M182.141 182.000 C 182.141 185.758,182.189 187.296,182.249 185.417 C 182.308 183.537,182.308 180.463,182.249 178.583 C 182.189 176.704,182.141 178.242,182.141 182.000 M189.000 175.726 C 189.000 175.864,189.750 176.077,190.667 176.198 L 192.333 176.419 192.333 200.222 L 192.333 224.024 195.548 223.929 L 198.763 223.833 198.764 200.411 C 198.765 187.529,198.658 176.879,198.525 176.744 C 198.185 176.401,189.000 175.419,189.000 175.726 M215.000 175.883 C 214.542 175.952,213.529 176.091,212.750 176.192 L 211.333 176.374 211.333 184.802 L 211.333 193.230 212.618 192.008 C 214.032 190.663,216.571 189.336,217.746 189.328 C 218.174 189.325,218.344 189.217,218.138 189.078 C 217.899 188.916,217.789 186.810,217.812 182.833 C 217.858 174.942,218.052 175.423,215.000 175.883 M201.158 200.500 C 201.158 213.700,201.199 219.051,201.250 212.392 C 201.300 205.733,201.300 194.933,201.250 188.392 C 201.199 181.851,201.158 187.300,201.158 200.500 M144.526 189.291 C 144.396 189.501,144.500 189.667,144.760 189.667 C 145.946 189.667,149.409 191.823,150.973 193.534 C 154.097 196.952,155.438 200.958,155.453 206.917 L 155.461 210.333 158.179 210.333 L 160.898 210.333 160.935 206.583 C 160.956 204.521,161.104 202.383,161.263 201.833 C 161.940 199.504,158.849 194.201,155.362 191.711 C 152.853 189.919,145.195 188.209,144.526 189.291 M178.667 189.333 C 178.226 189.618,178.228 189.657,178.684 189.662 C 178.969 189.664,179.832 190.130,180.601 190.696 L 182.000 191.724 182.000 190.362 L 182.000 189.000 180.583 189.005 C 179.804 189.008,178.942 189.156,178.667 189.333 M224.667 189.316 C 224.025 189.460,223.787 189.599,224.137 189.623 C 228.784 189.943,232.437 197.505,232.451 206.833 C 232.464 215.557,229.801 221.382,224.615 223.973 L 222.718 224.921 224.287 225.129 C 233.014 226.287,238.783 219.089,238.817 207.000 C 238.854 194.278,233.320 187.362,224.667 189.316 M249.018 190.250 C 249.027 190.387,250.210 192.825,251.647 195.667 L 254.259 200.833 255.886 197.500 L 257.514 194.167 256.405 192.083 L 255.297 190.000 252.148 190.000 C 250.417 190.000,249.008 190.112,249.018 190.250 M269.555 191.250 C 269.122 191.938,266.873 195.532,264.557 199.238 L 260.347 205.976 266.210 215.154 L 272.073 224.333 275.203 224.333 C 276.925 224.333,278.333 224.254,278.333 224.157 C 278.333 224.060,275.914 220.197,272.957 215.573 C 270.000 210.950,267.438 206.855,267.264 206.475 C 266.998 205.896,267.692 204.588,271.505 198.475 C 274.013 194.455,276.205 190.904,276.377 190.583 C 276.665 190.047,276.436 190.000,273.516 190.000 L 270.342 190.000 269.555 191.250 M137.500 196.165 C 135.270 196.951,133.333 200.145,133.333 203.038 L 133.333 204.000 136.463 204.000 L 139.592 204.000 139.813 202.750 C 140.211 200.488,140.988 198.507,141.834 197.594 C 142.902 196.442,142.898 196.429,141.417 196.018 C 139.799 195.568,139.123 195.594,137.500 196.165 M175.000 197.083 C 171.689 198.767,170.233 207.388,172.163 213.885 C 173.138 217.165,176.194 218.618,179.033 217.150 L 180.033 216.632 179.386 215.566 C 177.346 212.204,177.538 201.537,179.692 198.576 C 180.508 197.454,180.344 197.127,178.738 196.681 C 177.004 196.199,176.667 196.235,175.000 197.083 M214.989 196.940 C 214.136 197.318,213.208 198.109,212.247 199.276 L 211.333 200.384 211.333 207.647 C 211.333 214.372,211.382 214.972,211.991 215.746 C 213.571 217.755,217.555 218.321,219.307 216.787 C 219.384 216.719,219.084 216.278,218.640 215.805 C 217.840 214.954,217.833 214.885,217.804 207.762 L 217.774 200.577 218.881 199.127 L 219.987 197.677 219.010 197.172 C 218.011 196.655,215.905 196.534,214.989 196.940 M182.143 206.667 C 182.143 210.792,182.190 212.479,182.249 210.417 C 182.307 208.354,182.307 204.979,182.249 202.917 C 182.190 200.854,182.143 202.542,182.143 206.667 M133.497 211.417 C 134.332 215.590,136.636 217.421,141.257 217.584 C 144.227 217.688,144.444 217.655,143.833 217.186 C 141.499 215.394,140.022 213.103,140.007 211.250 L 140.000 210.333 136.640 210.333 L 133.280 210.333 133.497 211.417 M250.744 217.805 C 249.051 221.149,247.667 223.986,247.667 224.110 C 247.667 224.233,249.054 224.333,250.750 224.332 L 253.833 224.330 255.449 221.154 C 257.276 217.563,257.324 218.233,254.927 213.779 L 253.821 211.724 250.744 217.805 M155.500 215.963 C 154.950 216.282,153.932 216.767,153.239 217.039 L 151.977 217.535 153.013 218.965 C 153.582 219.751,153.974 220.587,153.883 220.824 C 153.627 221.491,150.038 223.541,148.000 224.184 C 145.061 225.112,145.168 225.433,148.333 225.184 C 152.074 224.890,154.682 224.197,157.389 222.778 C 160.921 220.927,160.919 220.931,158.795 218.000 C 156.718 215.133,156.821 215.197,155.500 215.963 M181.316 222.185 C 180.698 222.822,179.481 223.698,178.612 224.131 L 177.033 224.918 178.600 225.123 C 180.085 225.316,180.538 225.285,183.333 224.796 C 184.405 224.608,184.439 224.568,183.750 224.306 C 183.146 224.077,183.000 223.764,183.000 222.697 C 183.000 220.917,182.648 220.810,181.316 222.185 M210.284 222.917 L 210.164 224.167 211.716 224.053 L 213.269 223.940 212.011 222.803 C 210.448 221.391,210.430 221.392,210.284 222.917 " stroke="none" fill="#f0ecec" fill-rule="evenodd"></path></g></svg>