<svg id="svg" version="1.1" xmlns="http://www.w3.org/2000/svg" xmlns:xlink="http://www.w3.org/1999/xlink" 
width="100" 
height="100" 
viewBox="0, 0, 400,400">
<g 
id="svgg">
<path id="path0" d="M169.440 84.204 C 167.858 84.985,167.333 86.420,167.333 89.967 L 167.333 93.000 200.030 93.000 L 232.727 93.000 232.614 89.534 C 232.488 85.697,232.162 84.996,230.094 84.121 C 228.368 83.390,170.931 83.469,169.440 84.204 M84.772 85.417 C 90.982 100.021,94.300 111.370,95.505 122.121 C 95.781 124.579,95.576 124.875,99.683 116.083 C 101.588 112.004,103.227 108.667,103.324 108.667 C 103.421 108.667,124.051 129.217,149.167 154.335 L 194.833 200.003 154.578 240.251 L 114.323 280.500 106.844 280.667 L 99.365 280.833 88.099 292.047 C 81.903 298.214,76.383 303.745,75.833 304.338 L 74.833 305.416 83.500 305.189 L 92.167 304.961 103.582 293.567 L 114.997 282.173 116.345 283.521 L 117.693 284.870 106.180 296.180 L 94.667 307.491 94.667 316.245 C 94.667 321.060,94.780 325.000,94.918 325.000 C 95.057 325.000,100.682 319.487,107.418 312.748 L 119.667 300.497 119.667 292.831 L 119.667 285.166 159.751 245.083 L 199.834 205.000 240.167 245.334 L 280.500 285.667 280.558 293.057 L 280.616 300.446 292.058 311.911 C 298.351 318.217,303.922 323.684,304.439 324.060 L 305.378 324.744 305.153 316.122 L 304.929 307.500 293.551 296.085 L 282.174 284.670 283.422 283.422 L 284.670 282.174 296.087 293.587 L 307.504 305.000 316.333 305.000 L 325.163 305.000 312.749 292.583 L 300.335 280.167 292.584 280.059 L 284.833 279.951 244.834 239.976 L 204.834 200.000 250.500 154.333 C 275.616 129.217,296.248 108.667,296.349 108.667 C 296.450 108.667,298.085 112.004,299.982 116.083 C 301.879 120.162,303.529 123.613,303.650 123.751 C 303.770 123.889,304.056 122.464,304.286 120.584 C 305.369 111.717,309.123 98.753,313.620 88.352 C 315.291 84.485,315.547 84.627,310.621 86.687 C 300.579 90.885,290.939 93.737,282.000 95.155 C 274.985 96.268,274.833 95.694,283.172 99.593 C 287.203 101.478,290.682 103.133,290.905 103.272 C 291.171 103.438,275.680 119.154,245.571 149.262 L 199.832 195.000 154.060 149.227 L 108.288 103.453 116.050 99.810 C 124.896 95.659,124.716 96.238,117.500 95.145 C 109.757 93.972,98.180 90.557,89.421 86.861 C 84.622 84.837,84.511 84.803,84.772 85.417 M167.333 117.810 C 167.333 137.798,167.391 140.344,167.857 140.810 C 168.657 141.609,231.343 141.609,232.143 140.810 C 232.609 140.344,232.667 137.798,232.667 117.810 L 232.667 95.333 200.000 95.333 L 167.333 95.333 167.333 117.810 M192.292 110.910 L 196.319 115.167 191.909 119.593 C 187.416 124.104,186.675 124.551,185.867 123.234 C 185.551 122.719,186.025 122.121,189.250 118.957 C 191.313 116.933,193.000 115.175,193.000 115.050 C 193.000 114.924,191.425 113.252,189.500 111.333 C 186.004 107.849,185.493 106.984,186.575 106.378 C 187.435 105.897,187.888 106.256,192.292 110.910 M214.987 122.151 C 216.306 123.740,215.797 123.833,205.833 123.833 C 197.123 123.833,196.502 123.794,196.394 123.234 C 196.107 121.743,196.567 121.667,205.833 121.667 C 213.077 121.667,214.654 121.750,214.987 122.151 M95.904 189.141 C 89.194 190.945,87.823 201.662,93.851 205.195 C 95.900 206.395,99.982 206.792,100.031 205.795 C 100.137 203.675,100.155 189.426,100.053 189.083 C 99.895 188.554,97.989 188.580,95.904 189.141 M102.333 193.667 L 102.333 198.667 107.167 198.667 L 112.000 198.667 112.000 196.272 C 112.000 191.327,109.061 188.667,103.597 188.667 L 102.333 188.667 102.333 193.667 M290.904 189.141 C 284.194 190.945,282.823 201.662,288.851 205.195 C 290.900 206.395,294.982 206.792,295.031 205.795 C 295.137 203.675,295.155 189.426,295.053 189.083 C 294.895 188.554,292.989 188.580,290.904 189.141 M297.333 193.667 L 297.333 198.667 302.167 198.667 L 307.000 198.667 307.000 196.272 C 307.000 191.327,304.061 188.667,298.597 188.667 L 297.333 188.667 297.333 193.667 M102.333 204.000 L 102.333 206.333 105.250 206.332 C 108.663 206.331,110.074 205.702,110.853 203.837 C 111.771 201.642,111.817 201.667,106.833 201.667 L 102.333 201.667 102.333 204.000 M297.333 204.000 L 297.333 206.333 300.250 206.332 C 303.663 206.331,305.074 205.702,305.853 203.837 C 306.771 201.642,306.817 201.667,301.833 201.667 L 297.333 201.667 297.333 204.000 M187.667 308.167 L 187.667 321.333 192.333 321.333 L 197.000 321.333 197.000 308.167 L 197.000 295.000 192.333 295.000 L 187.667 295.000 187.667 308.167 M202.667 308.167 L 202.667 321.333 207.500 321.333 L 212.333 321.333 212.333 308.167 L 212.333 295.000 207.500 295.000 L 202.667 295.000 202.667 308.167 M152.904 304.141 C 146.216 305.939,144.835 316.669,150.839 320.188 C 152.492 321.157,156.538 321.747,156.950 321.080 C 157.113 320.817,157.183 305.312,157.028 303.917 C 156.985 303.535,154.692 303.660,152.904 304.141 M159.333 308.667 L 159.333 313.667 164.167 313.667 L 169.000 313.667 169.000 311.272 C 169.000 306.327,166.061 303.667,160.597 303.667 L 159.333 303.667 159.333 308.667 M181.239 304.023 C 171.933 306.271,173.336 320.643,182.922 321.265 L 185.345 321.422 185.256 312.628 L 185.167 303.833 183.833 303.776 C 183.100 303.744,181.933 303.855,181.239 304.023 M214.667 312.500 L 214.667 321.333 216.458 321.333 C 221.910 321.333,224.889 317.948,224.608 312.071 C 224.347 306.601,221.355 303.710,215.917 303.675 L 214.667 303.667 214.667 312.500 M231.333 305.545 C 231.333 308.820,231.814 309.758,234.901 312.513 L 237.689 315.000 236.167 315.000 C 232.895 315.000,231.333 316.502,231.333 319.650 L 231.333 321.333 233.677 321.333 C 237.236 321.333,238.657 320.561,239.475 318.182 L 239.873 317.024 242.321 319.178 L 244.770 321.333 248.596 321.333 L 252.423 321.333 252.258 319.025 C 252.051 316.139,251.090 314.394,248.474 312.159 L 246.576 310.538 248.474 310.159 C 251.253 309.604,252.095 308.636,252.276 305.790 L 252.418 303.562 249.875 303.777 C 245.906 304.112,244.675 304.842,244.034 307.237 C 243.836 307.978,243.709 307.916,241.213 305.840 L 238.599 303.667 234.966 303.667 L 231.333 303.667 231.333 305.545 M159.333 319.000 L 159.333 321.333 162.250 321.332 C 165.663 321.331,167.074 320.702,167.853 318.837 C 168.771 316.642,168.817 316.667,163.833 316.667 L 159.333 316.667 159.333 319.000 " 
stroke="none" 
fill="inherit" 
fill-rule="evenodd">
</path>
</g>
</svg>